<svg width="1437" height="823" viewBox="0 0 1437 823" fill="none" xmlns="http://www.w3.org/2000/svg">
<g filter="url(#filter0_f)">
<path d="M60.0007 148.009L213.709 38H701.751L763.376 82.1048H1350.42L1400 117.591V735.868H776.834L678.376 806.334H213.709L108.167 730.798H60.0007V148.009Z" stroke="#FF15BD" stroke-width="3" stroke-miterlimit="10"/>
<path d="M60.0007 148.009L213.709 38H701.751L763.376 82.1048H1350.42L1400 117.591V735.868H776.834L678.376 806.334H213.709L108.167 730.798H60.0007V148.009Z" stroke="url(#paint0_linear)" stroke-opacity="0.9" stroke-width="3" stroke-miterlimit="10"/>
<path d="M60.0007 148.009L213.709 38H701.751L763.376 82.1048H1350.42L1400 117.591V735.868H776.834L678.376 806.334H213.709L108.167 730.798H60.0007V148.009Z" stroke="url(#paint1_linear)" stroke-opacity="0.9" stroke-width="3" stroke-miterlimit="10"/>
</g>
<g filter="url(#filter1_f)">
<path d="M60.0007 148.009L213.709 38H701.751L763.376 82.1048H1350.42L1400 117.591V735.868H776.834L678.376 806.334H213.709L108.167 730.798H60.0007V148.009Z" stroke="#FF15BD" stroke-width="2" stroke-miterlimit="10"/>
<path d="M60.0007 148.009L213.709 38H701.751L763.376 82.1048H1350.42L1400 117.591V735.868H776.834L678.376 806.334H213.709L108.167 730.798H60.0007V148.009Z" stroke="url(#paint2_linear)" stroke-width="2" stroke-miterlimit="10"/>
<path d="M60.0007 148.009L213.709 38H701.751L763.376 82.1048H1350.42L1400 117.591V735.868H776.834L678.376 806.334H213.709L108.167 730.798H60.0007V148.009Z" stroke="url(#paint3_linear)" stroke-opacity="0.9" stroke-width="2" stroke-miterlimit="10"/>
</g>
<path d="M60.0007 148.009L213.709 38H701.751L763.376 82.1048H1349.42L1399 117.591V735.868H776.834L678.376 806.334H213.709L108.167 730.798H60.0007V148.009Z" fill="url(#paint4_linear)"/>
<path d="M60.0007 148.009L213.709 38H701.751L763.376 82.1048H1349.42L1399 117.591V735.868H776.834L678.376 806.334H213.709L108.167 730.798H60.0007V148.009Z" stroke="#FF15BD" stroke-width="3" stroke-miterlimit="10"/>
<path d="M60.0007 148.009L213.709 38H701.751L763.376 82.1048H1349.42L1399 117.591V735.868H776.834L678.376 806.334H213.709L108.167 730.798H60.0007V148.009Z" stroke="url(#paint5_linear)" stroke-opacity="0.9" stroke-width="3" stroke-miterlimit="10"/>
<path d="M60.0007 148.009L213.709 38H701.751L763.376 82.1048H1349.42L1399 117.591V735.868H776.834L678.376 806.334H213.709L108.167 730.798H60.0007V148.009Z" fill="url(#paint6_linear)"/>
<path d="M60.0007 148.009L213.709 38H701.751L763.376 82.1048H1349.42L1399 117.591V735.868H776.834L678.376 806.334H213.709L108.167 730.798H60.0007V148.009Z" stroke="#FF15BD" stroke-width="3" stroke-miterlimit="10"/>
<path d="M60.0007 148.009L213.709 38H701.751L763.376 82.1048H1349.42L1399 117.591V735.868H776.834L678.376 806.334H213.709L108.167 730.798H60.0007V148.009Z" stroke="url(#paint7_linear)" stroke-opacity="0.9" stroke-width="3" stroke-miterlimit="10"/>
<path d="M1286.77 138.085H1271.02V154.8H1286.77V138.085Z" fill="#8F59FE"/>
<path opacity="0.64" d="M1286.77 163.763H1271.02V180.479H1286.77V163.763Z" fill="#8F59FE"/>
<path opacity="0.4" d="M1286.77 189.442H1271.02V206.158H1286.77V189.442Z" fill="#8F59FE"/>
<path opacity="0.34" d="M1286.77 215.12H1271.02V231.836H1286.77V215.12Z" fill="#8F59FE"/>
<path opacity="0.22" d="M1286.77 241.043H1271.02V257.759H1286.77V241.043Z" fill="#8F59FE"/>
<path opacity="0.15" d="M1286.77 266.722H1271.02V283.438H1286.77V266.722Z" fill="#8F59FE"/>
<path opacity="0.4" d="M1235.17 189.444H1219.42V206.16H1235.17V189.444Z" fill="#8F59FE"/>
<path opacity="0.34" d="M1235.17 215.123H1219.42V231.838H1235.17V215.123Z" fill="#8F59FE"/>
<path opacity="0.22" d="M1235.17 241.046H1219.42V257.761H1235.17V241.046Z" fill="#8F59FE"/>
<path opacity="0.15" d="M1235.17 266.724H1219.42V283.44H1235.17V266.724Z" fill="#8F59FE"/>
<path opacity="0.34" d="M1260.61 215.121H1244.86V231.837H1260.61V215.121Z" fill="#8F59FE"/>
<path opacity="0.22" d="M1260.61 241.045H1244.86V257.76H1260.61V241.045Z" fill="#8F59FE"/>
<path opacity="0.15" d="M1260.61 266.724H1244.86V283.439H1260.61V266.724Z" fill="#8F59FE"/>
<path opacity="0.22" d="M1209.73 241.046H1193.99V257.762H1209.73V241.046Z" fill="#8F59FE"/>
<path opacity="0.15" d="M1209.73 266.725H1193.99V283.441H1209.73V266.725Z" fill="#8F59FE"/>
<path d="M1364.78 64.198H1349.03V86.2435H1364.78V64.198Z" fill="#8F59FE"/>
<path opacity="0.64" d="M1364.78 98.356H1349.03V120.401H1364.78V98.356Z" fill="#8F59FE"/>
<path opacity="0.4" d="M1364.78 132.514H1349.03V154.559H1364.78V132.514Z" fill="#8F59FE"/>
<path opacity="0.34" d="M1364.78 166.672H1349.03V188.717H1364.78V166.672Z" fill="#8F59FE"/>
<path opacity="0.22" d="M1364.78 201.074H1349.03V223.12H1364.78V201.074Z" fill="#8F59FE"/>
<path opacity="0.15" d="M1364.78 235.232H1349.03V257.278H1364.78V235.232Z" fill="#8F59FE"/>
<path d="M1429.22 279.808V38.7611H1170V11.386H1402.57V309.605" stroke="#8F59FE" stroke-width="2" stroke-miterlimit="10"/>
<path d="M1402.33 316.389C1406.07 316.389 1409.11 313.352 1409.11 309.606C1409.11 305.86 1406.07 302.823 1402.33 302.823C1398.58 302.823 1395.54 305.86 1395.54 309.606C1395.54 313.352 1398.58 316.389 1402.33 316.389Z" fill="#8F59FE"/>
<path d="M1429.22 286.833C1432.97 286.833 1436 283.796 1436 280.05C1436 276.303 1432.97 273.266 1429.22 273.266C1425.47 273.266 1422.44 276.303 1422.44 280.05C1422.44 283.796 1425.47 286.833 1429.22 286.833Z" fill="#8F59FE"/>
<path d="M1402.57 167.886L1392.15 157.469V38.7625H1402.57V167.886Z" fill="#8F59FE"/>
<path d="M1275.63 10.4171L1286.04 0H1404.99V10.4171H1275.63Z" fill="#8F59FE"/>
<path d="M149.231 640.304H164.978V623.588H149.231V640.304Z" fill="#8F59FE"/>
<path opacity="0.64" d="M149.231 614.626H164.978V597.91H149.231V614.626Z" fill="#8F59FE"/>
<path opacity="0.4" d="M149.231 588.947H164.978V572.231H149.231V588.947Z" fill="#8F59FE"/>
<path opacity="0.34" d="M149.231 563.268H164.978V546.552H149.231V563.268Z" fill="#8F59FE"/>
<path opacity="0.22" d="M149.231 537.345H164.978V520.629H149.231V537.345Z" fill="#8F59FE"/>
<path opacity="0.15" d="M149.231 511.666H164.978V494.95H149.231V511.666Z" fill="#8F59FE"/>
<path opacity="0.4" d="M200.833 588.945H216.58V572.229H200.833V588.945Z" fill="#8F59FE"/>
<path opacity="0.34" d="M200.833 563.266H216.58V546.55H200.833V563.266Z" fill="#8F59FE"/>
<path opacity="0.22" d="M200.833 537.343H216.58V520.627H200.833V537.343Z" fill="#8F59FE"/>
<path opacity="0.15" d="M200.833 511.664H216.58V494.949H200.833V511.664Z" fill="#8F59FE"/>
<path opacity="0.34" d="M175.395 563.268H191.142V546.552H175.395V563.268Z" fill="#8F59FE"/>
<path opacity="0.22" d="M175.395 537.344H191.142V520.628H175.395V537.344Z" fill="#8F59FE"/>
<path opacity="0.15" d="M175.395 511.665H191.142V494.949H175.395V511.665Z" fill="#8F59FE"/>
<path opacity="0.22" d="M226.27 537.343H242.017V520.627H226.27V537.343Z" fill="#8F59FE"/>
<path opacity="0.15" d="M226.27 511.664H242.017V494.948H226.27V511.664Z" fill="#8F59FE"/>
<path d="M71.2237 714.191H86.9707V692.145H71.2237V714.191Z" fill="#8F59FE"/>
<path opacity="0.64" d="M71.2237 680.033H86.9707V657.987H71.2237V680.033Z" fill="#8F59FE"/>
<path opacity="0.4" d="M71.2237 645.875H86.9707V623.829H71.2237V645.875Z" fill="#8F59FE"/>
<path opacity="0.34" d="M71.2237 611.717H86.9707V589.671H71.2237V611.717Z" fill="#8F59FE"/>
<path opacity="0.22" d="M71.2237 577.314H86.9707V555.269H71.2237V577.314Z" fill="#8F59FE"/>
<path opacity="0.15" d="M71.2237 543.156H86.9707V521.111H71.2237V543.156Z" fill="#8F59FE"/>
<path d="M6.78284 498.581V739.628H266V767.003H33.4313V468.783" stroke="#8F59FE" stroke-width="2" stroke-miterlimit="10"/>
<path d="M33.6738 461.999C29.9275 461.999 26.8905 465.036 26.8905 468.783C26.8905 472.529 29.9275 475.566 33.6738 475.566C37.4201 475.566 40.457 472.529 40.457 468.783C40.457 465.036 37.4201 461.999 33.6738 461.999Z" fill="#8F59FE"/>
<path d="M6.78316 491.556C3.03687 491.556 -7.62939e-05 494.593 -7.62939e-05 498.339C-7.62939e-05 502.085 3.03687 505.122 6.78316 505.122C10.5295 505.122 13.5664 502.085 13.5664 498.339C13.5664 494.593 10.5295 491.556 6.78316 491.556Z" fill="#8F59FE"/>
<path d="M33.4315 610.503L43.8486 620.92V739.626H33.4315V610.503Z" fill="#8F59FE"/>
<path d="M160.375 767.972L149.958 778.389H31.0087V767.972H160.375Z" fill="#8F59FE"/>
<path d="M827.246 68.9658L780.496 35H741.538L788.996 68.9658H827.246Z" fill="#15A0FF"/>
<path d="M827.246 68.9658L780.496 35H741.538L788.996 68.9658H827.246Z" fill="url(#paint8_linear)" fill-opacity="0.65"/>
<path d="M893.119 68.9658L846.369 35H807.411L854.161 68.9658H893.119Z" fill="#15A0FF"/>
<path d="M893.119 68.9658L846.369 35H807.411L854.161 68.9658H893.119Z" fill="url(#paint9_linear)" fill-opacity="0.65"/>
<path d="M958.288 68.9658L911.538 35H873.288L920.038 68.9658H958.288Z" fill="#15A0FF"/>
<path d="M958.288 68.9658L911.538 35H873.288L920.038 68.9658H958.288Z" fill="url(#paint10_linear)" fill-opacity="0.65"/>
<path d="M1024.17 68.9658L977.416 35H938.458L985.916 68.9658H1024.17Z" fill="#15A0FF"/>
<path d="M1024.17 68.9658L977.416 35H938.458L985.916 68.9658H1024.17Z" fill="url(#paint11_linear)" fill-opacity="0.65"/>
<path d="M1090.04 68.9658L1042.58 35H1004.33L1051.08 68.9658H1090.04Z" fill="#15A0FF"/>
<path d="M1090.04 68.9658L1042.58 35H1004.33L1051.08 68.9658H1090.04Z" fill="url(#paint12_linear)" fill-opacity="0.65"/>
<path d="M1155.21 68.9658L1108.46 35H1070.21L1116.96 68.9658H1155.21Z" fill="#15A0FF"/>
<path d="M1155.21 68.9658L1108.46 35H1070.21L1116.96 68.9658H1155.21Z" fill="url(#paint13_linear)" fill-opacity="0.65"/>
<path d="M654.001 789.681L724.126 740H762.376L691.542 790.188L654.001 789.681Z" fill="#15A0FF"/>
<path d="M654.001 789.681L724.126 740H762.376L691.542 790.188L654.001 789.681Z" fill="url(#paint14_linear)" fill-opacity="0.65"/>
<path d="M196.834 47.6719H167.792L75.0007 114.083V135.375L196.834 47.6719Z" fill="#15A0FF"/>
<path d="M196.834 47.6719H167.792L75.0007 114.083V135.375L196.834 47.6719Z" fill="url(#paint15_linear)" fill-opacity="0.65"/>
<defs>
<filter id="filter0_f" x="43.5007" y="21.5" width="1373" height="801.334" filterUnits="userSpaceOnUse" color-interpolation-filters="sRGB">
<feFlood flood-opacity="0" result="BackgroundImageFix"/>
<feBlend mode="normal" in="SourceGraphic" in2="BackgroundImageFix" result="shape"/>
<feGaussianBlur stdDeviation="7.5" result="effect1_foregroundBlur"/>
</filter>
<filter id="filter1_f" x="44.0007" y="22" width="1372" height="800.334" filterUnits="userSpaceOnUse" color-interpolation-filters="sRGB">
<feFlood flood-opacity="0" result="BackgroundImageFix"/>
<feBlend mode="normal" in="SourceGraphic" in2="BackgroundImageFix" result="shape"/>
<feGaussianBlur stdDeviation="7.5" result="effect1_foregroundBlur"/>
</filter>
<linearGradient id="paint0_linear" x1="1286" y1="38.002" x2="255.213" y2="-98.8378" gradientUnits="userSpaceOnUse">
<stop offset="0.00393049" stop-color="#2958FF"/>
<stop offset="0.467083" stop-color="#E248FB"/>
<stop offset="1" stop-color="#F71C1C"/>
</linearGradient>
<linearGradient id="paint1_linear" x1="1286.92" y1="38.0004" x2="255.385" y2="-99.0401" gradientUnits="userSpaceOnUse">
<stop offset="0.00393049" stop-color="#2958FF"/>
<stop offset="0.467083" stop-color="#E248FB"/>
<stop offset="1" stop-color="#12FED9"/>
</linearGradient>
<linearGradient id="paint2_linear" x1="1286" y1="38.002" x2="255.213" y2="-98.8378" gradientUnits="userSpaceOnUse">
<stop offset="0.00393049" stop-color="#2958FF"/>
<stop offset="0.467083" stop-color="#E248FB"/>
<stop offset="1" stop-color="#F71C1C"/>
</linearGradient>
<linearGradient id="paint3_linear" x1="1286.92" y1="38.0004" x2="255.385" y2="-99.0401" gradientUnits="userSpaceOnUse">
<stop offset="0.00393049" stop-color="#2958FF"/>
<stop offset="0.467083" stop-color="#E248FB"/>
<stop offset="1" stop-color="#12FED9"/>
</linearGradient>
<linearGradient id="paint4_linear" x1="60.3259" y1="287.312" x2="1300.9" y2="287.312" gradientUnits="userSpaceOnUse">
<stop stop-color="#702AE3" stop-opacity="0.7"/>
<stop offset="1" stop-color="#0F3EB7" stop-opacity="0.1"/>
</linearGradient>
<linearGradient id="paint5_linear" x1="1286" y1="38.0004" x2="255.213" y2="-98.8392" gradientUnits="userSpaceOnUse">
<stop offset="0.00393049" stop-color="#2958FF"/>
<stop offset="0.467083" stop-color="#E248FB"/>
<stop offset="1" stop-color="#12FED9"/>
</linearGradient>
<linearGradient id="paint6_linear" x1="60.3259" y1="287.312" x2="1300.9" y2="287.312" gradientUnits="userSpaceOnUse">
<stop stop-color="#702AE3" stop-opacity="0.7"/>
<stop offset="1" stop-color="#0F3EB7" stop-opacity="0.1"/>
</linearGradient>
<linearGradient id="paint7_linear" x1="1286" y1="38.0004" x2="255.213" y2="-98.8392" gradientUnits="userSpaceOnUse">
<stop offset="0.00393049" stop-color="#2958FF"/>
<stop offset="0.467083" stop-color="#E248FB"/>
<stop offset="1" stop-color="#12FED9"/>
</linearGradient>
<linearGradient id="paint8_linear" x1="820.013" y1="35" x2="755.263" y2="22.5539" gradientUnits="userSpaceOnUse">
<stop stop-color="#2958FF"/>
<stop offset="0.467083" stop-color="#E248FB"/>
<stop offset="1" stop-color="#12FED9"/>
</linearGradient>
<linearGradient id="paint9_linear" x1="885.886" y1="35" x2="821.136" y2="22.5539" gradientUnits="userSpaceOnUse">
<stop stop-color="#2958FF"/>
<stop offset="0.467083" stop-color="#E248FB"/>
<stop offset="1" stop-color="#12FED9"/>
</linearGradient>
<linearGradient id="paint10_linear" x1="951.114" y1="35" x2="886.862" y2="22.7516" gradientUnits="userSpaceOnUse">
<stop stop-color="#2958FF"/>
<stop offset="0.467083" stop-color="#E248FB"/>
<stop offset="1" stop-color="#12FED9"/>
</linearGradient>
<linearGradient id="paint11_linear" x1="1016.93" y1="35" x2="952.183" y2="22.5539" gradientUnits="userSpaceOnUse">
<stop stop-color="#2958FF"/>
<stop offset="0.467083" stop-color="#E248FB"/>
<stop offset="1" stop-color="#12FED9"/>
</linearGradient>
<linearGradient id="paint12_linear" x1="1082.81" y1="35" x2="1018.06" y2="22.5539" gradientUnits="userSpaceOnUse">
<stop stop-color="#2958FF"/>
<stop offset="0.467083" stop-color="#E248FB"/>
<stop offset="1" stop-color="#12FED9"/>
</linearGradient>
<linearGradient id="paint13_linear" x1="1148.04" y1="35" x2="1083.78" y2="22.7515" gradientUnits="userSpaceOnUse">
<stop stop-color="#2958FF"/>
<stop offset="0.467083" stop-color="#E248FB"/>
<stop offset="1" stop-color="#12FED9"/>
</linearGradient>
<linearGradient id="paint14_linear" x1="753.23" y1="740" x2="670.567" y2="726.403" gradientUnits="userSpaceOnUse">
<stop stop-color="#2958FF"/>
<stop offset="0.467083" stop-color="#E248FB"/>
<stop offset="1" stop-color="#12FED9"/>
</linearGradient>
<linearGradient id="paint15_linear" x1="186.552" y1="47.6719" x2="92.1668" y2="37.6841" gradientUnits="userSpaceOnUse">
<stop stop-color="#2958FF"/>
<stop offset="0.467083" stop-color="#E248FB"/>
<stop offset="1" stop-color="#12FED9"/>
</linearGradient>
</defs>
</svg>
