<svg width="232" height="326" viewBox="0 0 232 326" fill="none" xmlns="http://www.w3.org/2000/svg">
<mask id="path-1-inside-1" fill="white">
<path d="M207.123 322.652H23.8266L23.7335 322.56L0.407104 299.165V23.8846L0.500277 23.7914L23.8266 0.398438H207.123L207.216 0.491118L230.545 23.8846V299.165L230.452 299.259L207.123 322.652ZM24.089 322.016H206.861L229.911 298.902V24.1487L206.861 1.03437H24.089L1.04181 24.1487V298.902L24.089 322.016Z"/>
</mask>
<path d="M207.123 322.652H23.8266L23.7335 322.56L0.407104 299.165V23.8846L0.500277 23.7914L23.8266 0.398438H207.123L207.216 0.491118L230.545 23.8846V299.165L230.452 299.259L207.123 322.652ZM24.089 322.016H206.861L229.911 298.902V24.1487L206.861 1.03437H24.089L1.04181 24.1487V298.902L24.089 322.016Z" fill="#66CEF5"/>
<path d="M207.123 322.652V324.315H207.813L208.3 323.826L207.123 322.652ZM23.8266 322.652L22.6581 323.834L23.1437 324.315H23.8266V322.652ZM23.7335 322.56L22.5563 323.734L22.5649 323.742L23.7335 322.56ZM0.407104 299.165H-1.25513V299.852L-0.769993 300.339L0.407104 299.165ZM0.407104 23.8846L-0.768745 22.7097L-1.25513 23.1965V23.8846H0.407104ZM0.500277 23.7914L1.67613 24.9663L1.67733 24.9651L0.500277 23.7914ZM23.8266 0.398438V-1.2638H23.1367L22.6496 -0.775262L23.8266 0.398438ZM207.123 0.398438L208.299 -0.776585L207.812 -1.2638H207.123V0.398438ZM207.216 0.491118L208.393 -0.682634L208.391 -0.683904L207.216 0.491118ZM230.545 23.8846H232.207V23.1974L231.722 22.7109L230.545 23.8846ZM230.545 299.165L231.729 300.332L232.207 299.846V299.165H230.545ZM230.452 299.259L231.629 300.433L231.636 300.426L230.452 299.259ZM24.089 322.016L22.912 323.19L23.3991 323.678H24.089V322.016ZM206.861 322.016V323.678H207.551L208.038 323.19L206.861 322.016ZM229.911 298.902L231.088 300.076L231.573 299.589V298.902H229.911ZM229.911 24.1487H231.573V23.4615L231.088 22.975L229.911 24.1487ZM206.861 1.03437L208.038 -0.139356L207.551 -0.627865H206.861V1.03437ZM24.089 1.03437V-0.627865H23.3991L22.912 -0.139299L24.089 1.03437ZM1.04181 24.1487L-0.135273 22.975L-0.620422 23.4616V24.1487H1.04181ZM1.04181 298.902H-0.620422V299.589L-0.135264 300.076L1.04181 298.902ZM207.123 320.99H23.8266V324.315H207.123V320.99ZM24.9952 321.47L24.902 321.378L22.5649 323.742L22.6581 323.834L24.9952 321.47ZM24.9106 321.387L1.5842 297.992L-0.769993 300.339L22.5564 323.734L24.9106 321.387ZM2.06934 299.165V23.8846H-1.25513V299.165H2.06934ZM1.58295 25.0595L1.67613 24.9663L-0.675572 22.6165L-0.768745 22.7097L1.58295 25.0595ZM1.67733 24.9651L25.0037 1.57214L22.6496 -0.775262L-0.676772 22.6177L1.67733 24.9651ZM23.8266 2.06067H207.123V-1.2638H23.8266V2.06067ZM205.947 1.57346L206.04 1.66614L208.391 -0.683904L208.299 -0.776585L205.947 1.57346ZM206.039 1.66487L229.368 25.0584L231.722 22.7109L208.393 -0.682634L206.039 1.66487ZM228.882 23.8846V299.165H232.207V23.8846H228.882ZM229.36 297.999L229.268 298.093L231.636 300.426L231.729 300.332L229.36 297.999ZM229.275 298.086L205.946 321.479L208.3 323.826L231.629 300.433L229.275 298.086ZM24.089 323.678H206.861V320.354H24.089V323.678ZM208.038 323.19L231.088 300.076L228.734 297.728L205.684 320.842L208.038 323.19ZM231.573 298.902V24.1487H228.248V298.902H231.573ZM231.088 22.975L208.038 -0.139356L205.684 2.20809L228.734 25.3224L231.088 22.975ZM206.861 -0.627865H24.089V2.6966H206.861V-0.627865ZM22.912 -0.139299L-0.135273 22.975L2.21889 25.3224L25.2661 2.20803L22.912 -0.139299ZM-0.620422 24.1487V298.902H2.70404V24.1487H-0.620422ZM-0.135264 300.076L22.912 323.19L25.2661 320.842L2.21888 297.728L-0.135264 300.076Z" fill="url(#paint0_linear)" fill-opacity="0.9" mask="url(#path-1-inside-1)"/>
<g opacity="0.4">
<path d="M223.743 289.94V293.817L223.423 294.137L220.569 297L204.23 313.391H190.557L189.268 312.092H178.444L178.003 312.541L177.149 313.391H137.114L136.992 313.262L134.367 310.63L133.41 309.677H89.9438L88.9942 310.63L87.2985 312.33L86.6478 312.983L86.2408 313.391H70.4997L69.8552 312.738L68.9396 311.82L68.0237 310.908H43.5068L42.5975 311.82L41.6755 312.738L41.0309 313.391H26.456L23.9817 310.908L6.93689 293.817V289.94L8.94416 287.927V24.6336L10.1115 23.4707L18.1483 15.4048H25.2285L28.1792 18.3692H73.4637L76.1079 15.7176L76.4134 15.4048H128.195L136.239 23.4707L140.478 27.7151H188.706L190.815 29.8232H220.569V286.757L221.734 287.927L223.743 289.94Z" fill="#00AEEF"/>
<path d="M223.743 289.94V293.817L223.423 294.137L220.569 297L204.23 313.391H190.557L189.268 312.092H178.444L178.003 312.541L177.149 313.391H137.114L136.992 313.262L134.367 310.63L133.41 309.677H89.9438L88.9942 310.63L87.2985 312.33L86.6478 312.983L86.2408 313.391H70.4997L69.8552 312.738L68.9396 311.82L68.0237 310.908H43.5068L42.5975 311.82L41.6755 312.738L41.0309 313.391H26.456L23.9817 310.908L6.93689 293.817V289.94L8.94416 287.927V24.6336L10.1115 23.4707L18.1483 15.4048H25.2285L28.1792 18.3692H73.4637L76.1079 15.7176L76.4134 15.4048H128.195L136.239 23.4707L140.478 27.7151H188.706L190.815 29.8232H220.569V286.757L221.734 287.927L223.743 289.94Z" fill="url(#paint1_linear)"/>
</g>
<path d="M157.504 23.4722H142.367L126.023 7.08203H141.16L157.504 23.4722Z" fill="#66CEF5"/>
<path d="M69.264 309.641H42.5424L43.6414 308.537H68.1629L69.264 309.641Z" fill="#66CEF5"/>
<path d="M189.848 310.173H178.137L178.582 309.728H189.403L189.848 310.173Z" fill="#66CEF5"/>
<path d="M178.629 23.4722H163.481L147.136 7.08203H162.286L178.629 23.4722Z" fill="#66CEF5"/>
<path d="M199.744 23.4722H184.606L168.262 7.08203H183.4L199.744 23.4722Z" fill="#66CEF5"/>
<path d="M220.71 23.4722H205.72L189.387 7.08203H204.366L220.71 23.4722Z" fill="#66CEF5"/>
<path d="M157.504 23.4722H142.367L126.023 7.08203H141.16L157.504 23.4722Z" fill="#66CEF5"/>
<path d="M157.504 23.4722H142.367L126.023 7.08203H141.16L157.504 23.4722Z" fill="url(#paint2_linear)"/>
<path d="M178.629 23.4722H163.481L147.136 7.08203H162.286L178.629 23.4722Z" fill="#66CEF5"/>
<path d="M178.629 23.4722H163.481L147.136 7.08203H162.286L178.629 23.4722Z" fill="url(#paint3_linear)"/>
<path d="M199.744 23.4722H184.606L168.262 7.08203H183.4L199.744 23.4722Z" fill="#66CEF5"/>
<path d="M199.744 23.4722H184.606L168.262 7.08203H183.4L199.744 23.4722Z" fill="url(#paint4_linear)"/>
<path d="M220.71 23.4722H205.72L189.387 7.08203H204.366L220.71 23.4722Z" fill="#66CEF5"/>
<path d="M220.71 23.4722H205.72L189.387 7.08203H204.366L220.71 23.4722Z" fill="url(#paint5_linear)"/>
<path d="M29.0177 308.567H26.5946L9.96448 291.891H12.5044L29.0177 308.567Z" fill="#66CEF5"/>
<path d="M223.88 29.8228V50.1381L221.869 48.122V29.8228H223.88Z" fill="#66CEF5"/>
<path d="M223.88 29.8228V50.1381L221.869 48.122V29.8228H223.88Z" fill="#66CEF5"/>
<path opacity="0.4" d="M125.161 12.2228H21.4595L22.8766 10.8013L26.5894 7.07764H77.9274L78.3829 7.53387H91.0767L91.5305 7.07764H120.031L123.129 10.1869L125.161 12.2228Z" fill="#00AEEF"/>
<path d="M120.084 6.94238H91.4761L91.0222 7.40446H78.4348L77.9793 6.94238H26.5307L21.1385 12.3566H125.482L120.084 6.94238ZM21.7766 12.091L25.4857 8.37035L26.6459 7.20759H77.8713L78.3257 7.66306H91.1303L91.5852 7.20759H119.975L120.491 7.72441L124.838 12.091H21.7766Z" fill="#66CEF5"/>
<path d="M127.943 15.4048V15.7127H76.2443L76.5509 15.4048H127.943Z" fill="#66CEF5"/>
<path d="M140.615 27.7096H140.182L139.018 26.544L127.91 15.4048H128.334L139.441 26.544L140.615 27.7096Z" fill="#66CEF5"/>
<path opacity="0.6" d="M134.835 302.869H169.386L166.379 305.882H137.839L134.835 302.869Z" fill="#66CEF5"/>
<path d="M179.355 305.079L176.351 308.092H172.13L175.134 305.079H179.355Z" fill="#66CEF5"/>
<path d="M187.786 305.079L184.781 308.092H180.572L183.576 305.079H187.786Z" fill="#66CEF5"/>
<path d="M196.239 305.079L193.234 308.092H189.002L192.006 305.079H196.239Z" fill="#66CEF5"/>
<path opacity="0.6" d="M84.301 21.1177L81.2972 24.1305H77.0764L80.0802 21.1177H84.301Z" fill="#66CEF5"/>
<path opacity="0.6" d="M92.7312 21.1177L89.7263 24.1305H85.516L88.5214 21.1177H92.7312Z" fill="#66CEF5"/>
<path opacity="0.6" d="M101.184 21.1177L98.18 24.1305H93.9482L96.952 21.1177H101.184Z" fill="#66CEF5"/>
<path opacity="0.6" d="M32.9245 21.1177H32.3218H32.245H31.6428H30.8873H30.2852H28.7146H28.0347H26.6781H19.0306H18.3513H16.9942L13.9899 24.1305H15.3476H16.0257H29.6825H31.0396H31.7185H31.7283H33.086H33.7649H33.8927H35.251H35.9294L32.9245 21.1177Z" fill="#66CEF5"/>
<path d="M204.668 305.079L201.664 308.092H197.454L200.459 305.079H204.668Z" fill="#66CEF5"/>
<path d="M220.007 29.8228H205.853L206.551 30.5227H220.007V34.4689L220.705 35.1694V30.5227V29.8228H220.007Z" fill="#66CEF5"/>
<path d="M220.008 41.7265V43.1509V46.3738V47.7968L220.706 48.4973V46.3738V43.1509V41.0273L220.008 41.7265Z" fill="#66CEF5"/>
<path opacity="0.6" d="M121.684 15.4048L117.392 19.7166H77.6889L72.894 24.5181H39.0378L32.8997 18.3692H33.7887L39.2953 23.8854H72.6365L77.4243 19.0765H117.128L120.79 15.4048H121.684Z" fill="#66CEF5"/>
<path opacity="0.6" d="M197.041 29.8249L194.288 32.5932H155.128L155.032 32.4981L150.257 27.7168H151.159L155.385 31.9529H194.023L196.145 29.8249H197.041Z" fill="#66CEF5"/>
<path opacity="0.6" d="M117.94 12.3566H117.038L116.902 12.2201L116.773 12.0914L114.44 9.75169H69.8278L67.2906 7.20759L67.1621 7.07904L67.0264 6.94238H67.9291L68.0643 7.07904L68.1928 7.20759L70.0926 9.11274H114.705L117.675 12.0914L117.804 12.2201L117.94 12.3566Z" fill="#66CEF5"/>
<path d="M110.297 10.9287H80.9425L80.1386 11.7362H50.8979L50.4115 12.224H79.6522H81.2062H111.588L110.297 10.9287Z" fill="#66CEF5"/>
<path d="M125.161 12.2228L123.871 10.9276L123.129 10.1869L121.322 8.37215L120.676 7.7247L120.031 7.07764H118.37H107.632L108.277 7.7247H119.014L123.5 12.2228H125.161Z" fill="#66CEF5"/>
<path d="M136.375 23.3409H134.679L127.483 16.1178H114.278L112.616 17.7911H82.2864L81.4592 16.961L79.7773 15.2744H126.642L126.655 15.2882L127.754 15.2744H128.33L136.375 23.3409Z" fill="#66CEF5"/>
<path d="M127.755 15.4004L126.655 15.4136L126.643 15.4004H127.755Z" fill="#66CEF5"/>
<path opacity="0.6" d="M223.879 288.678V288.998L223.56 289.318H217.516L206.441 300.424H173.785L165.659 308.572H164.758L173.521 299.784H206.176L217.252 288.678H223.879Z" fill="#66CEF5"/>
<path d="M190.949 29.8197L188.843 27.708H156.19H154.833H140.182L140.689 28.2175H155.341L156.929 29.8106L190.949 29.8197Z" fill="#66CEF5"/>
<path d="M220.84 284.614V29.6935H191.005L188.895 27.5779H140.668L128.426 15.3148L128.393 15.2744H76.4944L74.6906 17.0833L73.5441 18.2326H28.3678L27.2219 17.0833L25.4193 15.2744H18.2289L16.5817 16.9268L10.1519 23.3746L8.95192 24.5785V285.784L6.9375 287.797V291.782L24.0215 308.908L26.5311 311.431H41.2212L43.6966 308.949H68.1055L70.5808 311.431H86.4306L90.1342 307.718H133.493L137.196 311.431H177.34L178.634 310.139H189.351L190.638 311.431H204.42L223.974 291.823L224.014 291.782V287.797L220.84 284.614ZM223.749 291.674L220.806 294.625L206.109 309.357L204.305 311.167H190.747L189.459 309.874H178.526L177.23 311.167H137.303L133.608 307.452H90.0248L86.3218 311.167H70.696L68.2201 308.684H43.5878L41.1118 311.167H26.6461L7.20158 291.674V287.906L9.21544 285.893V24.6873L16.5817 17.3015L18.3375 15.5396H25.3101L26.8492 17.0833L28.2195 18.4575L28.2598 18.4979H73.6535L75.0635 17.0833L76.6038 15.5396H128.276L140.559 27.8437H188.788L190.897 29.9588H220.575V284.723L223.749 287.906L223.749 291.674Z" fill="#66CEF5"/>
<path d="M59.7299 6.94238L59.4653 7.20759L58.4405 8.24086H26.8228L22.9643 12.091L22.699 12.3566H21.1533L25.2565 8.24086L26.5442 6.94238H59.7299Z" fill="#66CEF5"/>
<path d="M59.7299 6.94238L59.4653 7.20759L58.4405 8.24086H26.8228L22.9643 12.091L22.699 12.3566H21.1533L25.2565 8.24086L26.5442 6.94238H59.7299Z" fill="#66CEF5"/>
<path d="M75.0642 17.0811L73.6542 18.4956L70.7176 21.4408H40.5093L37.5793 18.4956H28.2605L28.2202 18.4552L26.8497 17.0811H75.0642Z" fill="#66CEF5"/>
<path d="M75.0642 17.0811L73.6542 18.4956L70.7176 21.4408H40.5093L37.5793 18.4956H28.2605L28.2202 18.4552L26.8497 17.0811H75.0642Z" fill="#AF12A0"/>
<path d="M16.5818 16.9263V18.8308L10.3078 25.0816V37.8202L9.21549 38.9218L8.95178 39.1868V24.5778L10.1517 23.3739L16.5818 16.9263Z" fill="#66CEF5"/>
<path d="M16.5818 16.9263V18.8308L10.3078 25.0816V37.8202L9.21549 38.9218L8.95178 39.1868V24.5778L10.1517 23.3739L16.5818 16.9263Z" fill="#66CEF5"/>
<path d="M221.179 282.607L206.11 297.719V295.067L218.453 282.607H221.179Z" fill="#66CEF5"/>
<path d="M221.179 294.561L206.11 309.673V307.02L218.453 294.561H221.179Z" fill="#66CEF5"/>
<path d="M171.709 311.368H137.195L133.492 307.654H90.1339L86.4303 311.368H74.6774L74.942 311.103L75.2129 310.831L75.3887 310.654H86.254L93.1785 303.717H131.477L137.921 310.178H170.522L171.445 311.103L171.709 311.368Z" fill="#66CEF5"/>
<path d="M122.94 302.955H122.044L117.086 297.983H72.6161L67.6106 303.009H27.4877L27.3928 302.913L13.2785 288.76H6.93787V288.127H13.5432L13.6315 288.223L27.7452 302.377H67.3465L72.3581 297.35H117.351L117.446 297.439L122.94 302.955Z" fill="#66CEF5"/>
<defs>
<linearGradient id="paint0_linear" x1="227.763" y1="0.398451" x2="43.2323" y2="-42.5431" gradientUnits="userSpaceOnUse">
<stop offset="0.00393049" stop-color="#2958FF"/>
<stop offset="0.467083" stop-color="#E248FB"/>
<stop offset="1" stop-color="#F71C1C"/>
</linearGradient>
<linearGradient id="paint1_linear" x1="6.99369" y1="39.9466" x2="223.725" y2="39.9466" gradientUnits="userSpaceOnUse">
<stop stop-color="#702AE3" stop-opacity="0.7"/>
<stop offset="1" stop-color="#0F3EB7" stop-opacity="0.1"/>
</linearGradient>
<linearGradient id="paint2_linear" x1="126.023" y1="15.2771" x2="153.758" y2="20.9746" gradientUnits="userSpaceOnUse">
<stop stop-color="#9327FF"/>
<stop offset="1" stop-color="#AC00E9"/>
</linearGradient>
<linearGradient id="paint3_linear" x1="147.136" y1="15.2771" x2="174.88" y2="20.9783" gradientUnits="userSpaceOnUse">
<stop stop-color="#9327FF"/>
<stop offset="1" stop-color="#AC00E9"/>
</linearGradient>
<linearGradient id="paint4_linear" x1="168.262" y1="15.2771" x2="195.997" y2="20.9744" gradientUnits="userSpaceOnUse">
<stop stop-color="#9327FF"/>
<stop offset="1" stop-color="#AC00E9"/>
</linearGradient>
<linearGradient id="paint5_linear" x1="189.387" y1="15.2771" x2="216.994" y2="20.9195" gradientUnits="userSpaceOnUse">
<stop stop-color="#9327FF"/>
<stop offset="1" stop-color="#AC00E9"/>
</linearGradient>
</defs>
</svg>
