<svg width="1465" height="1309" viewBox="0 0 1465 1309" fill="none" xmlns="http://www.w3.org/2000/svg">
<path d="M227.068 454.851C166.479 454.851 109.491 431.255 66.6018 388.406C23.7533 345.558 0.157227 288.57 0.157227 227.937C0.157227 167.347 23.7533 110.359 66.6018 67.4739C109.494 24.622 166.482 1.02588 227.068 1.02588C282.245 1.02588 335.42 21.0476 376.801 57.4059C378.89 59.2434 379.099 62.4281 377.261 64.5176C375.424 66.6071 372.239 66.8121 370.149 64.9779C330.61 30.2354 279.796 11.1039 227.068 11.1039C169.173 11.1039 114.714 33.6519 73.727 74.599C32.7832 115.58 10.2353 170.038 10.2353 227.937C10.2353 285.875 32.7832 340.33 73.727 381.278C114.711 422.221 169.17 444.769 227.068 444.769C268.287 444.769 308.351 433.186 342.922 411.277C403.683 372.795 437.938 297.566 471.068 224.812C504.51 151.367 539.091 75.4221 601.286 36.0774C637.537 13.1464 679.462 1.02588 722.532 1.02588C783.162 1.02588 840.15 24.622 882.998 67.4705C899.012 83.4845 912.48 101.696 923.038 121.593C924.342 124.052 923.404 127.102 920.945 128.406C918.486 129.706 915.436 128.772 914.133 126.316C904.044 107.299 891.171 89.8975 875.87 74.5957C834.926 33.6519 780.467 11.1039 722.532 11.1039C681.373 11.1039 641.31 22.687 606.675 44.5967C547.019 82.3356 513.07 156.89 480.242 228.991C446.504 303.089 411.614 379.709 348.32 419.793C312.13 442.727 270.205 454.851 227.068 454.851Z" fill="url(#paint0_linear)"/>
<path d="M1213.27 0.998864C1273.86 0.998864 1330.85 24.5949 1373.74 67.4435C1416.59 110.292 1440.18 167.28 1440.18 227.913C1440.18 288.502 1416.59 345.49 1373.74 388.376C1330.85 431.228 1273.86 454.824 1213.27 454.824C1158.1 454.824 1104.92 434.802 1063.54 398.444C1061.45 396.606 1061.24 393.422 1063.08 391.332C1064.92 389.242 1068.1 389.038 1070.19 390.872C1109.73 425.614 1160.55 444.746 1213.27 444.746C1271.17 444.746 1325.63 422.198 1366.61 381.251C1407.56 340.27 1430.11 285.811 1430.11 227.913C1430.11 169.974 1407.56 115.519 1366.61 74.572C1325.63 33.6282 1271.17 11.0803 1213.27 11.0803C1172.05 11.0803 1131.99 22.6633 1097.42 44.573C1036.66 83.0544 1002.4 158.284 969.274 231.037C935.832 304.483 901.251 380.428 839.056 419.772C802.805 442.703 760.88 454.824 717.81 454.824C657.18 454.824 600.192 431.228 557.344 388.379C541.33 372.365 527.862 354.154 517.304 334.257C516 331.798 516.937 328.747 519.396 327.444C521.856 326.144 524.906 327.078 526.209 329.533C536.297 348.551 549.17 365.952 564.472 381.254C605.416 422.198 659.874 444.746 717.81 444.746C758.969 444.746 799.032 433.163 833.667 411.253C893.322 373.514 927.272 298.96 960.1 226.858C993.838 152.761 1028.73 76.1409 1092.02 36.0571C1128.21 13.1228 1170.14 0.998864 1213.27 0.998864Z" fill="url(#paint1_linear)"/>
<path d="M1213.27 0.998864C1273.86 0.998864 1330.85 24.5949 1373.74 67.4435C1416.59 110.292 1440.18 167.28 1440.18 227.913C1440.18 288.502 1416.59 345.49 1373.74 388.376C1330.85 431.228 1273.86 454.824 1213.27 454.824C1158.1 454.824 1104.92 434.802 1063.54 398.444C1061.45 396.606 1061.24 393.422 1063.08 391.332C1064.92 389.242 1068.1 389.038 1070.19 390.872C1109.73 425.614 1160.55 444.746 1213.27 444.746C1271.17 444.746 1325.63 422.198 1366.61 381.251C1407.56 340.27 1430.11 285.811 1430.11 227.913C1430.11 169.974 1407.56 115.519 1366.61 74.572C1325.63 33.6282 1271.17 11.0803 1213.27 11.0803C1172.05 11.0803 1131.99 22.6633 1097.42 44.573C1036.66 83.0544 1002.4 158.284 969.274 231.037C935.832 304.483 901.251 380.428 839.056 419.772C802.805 442.703 760.88 454.824 717.81 454.824C657.18 454.824 600.192 431.228 557.344 388.379C541.33 372.365 527.862 354.154 517.304 334.257C516 331.798 516.937 328.747 519.396 327.444C521.856 326.144 524.906 327.078 526.209 329.533C536.297 348.551 549.17 365.952 564.472 381.254C605.416 422.198 659.874 444.746 717.81 444.746C758.969 444.746 799.032 433.163 833.667 411.253C893.322 373.514 927.272 298.96 960.1 226.858C993.838 152.761 1028.73 76.1409 1092.02 36.0571C1128.21 13.1228 1170.14 0.998864 1213.27 0.998864Z" fill="url(#paint2_linear)"/>
<path d="M382.946 49.6207C389.141 55.251 389.598 64.8386 383.967 71.0299C378.337 77.2245 368.75 77.6814 362.558 72.0511C356.364 66.4208 355.907 56.8366 361.537 50.642C367.167 44.4473 376.755 43.9904 382.946 49.6207Z" fill="url(#paint3_linear)"/>
<path d="M904.541 130.195C908.317 137.662 917.437 140.659 924.905 136.88C932.373 133.104 935.369 123.983 931.59 116.515C927.814 109.047 918.694 106.054 911.226 109.83C903.758 113.606 900.765 122.723 904.541 130.195Z" fill="url(#paint4_linear)"/>
<path d="M1066.19 376.024C1060.18 370.905 1050.88 371.323 1045.42 376.953C1039.95 382.585 1040.4 391.302 1046.41 396.418C1052.42 401.537 1061.72 401.118 1067.18 395.489C1072.64 389.86 1072.19 381.143 1066.19 376.024Z" fill="#FF36BB"/>
<path d="M504.088 321.976C501.027 314.927 504.645 306.888 512.168 304.019C519.69 301.151 528.269 304.542 531.329 311.591C534.39 318.641 530.772 326.68 523.249 329.548C515.73 332.413 507.148 329.022 504.088 321.976Z" fill="url(#paint5_linear)"/>
<path d="M116.641 1112.73C82.0671 1134.66 42.0004 1146.25 0.778076 1146.25V1156.34C43.9188 1156.34 85.8466 1144.21 122.04 1121.25C185.338 1081.13 220.231 1004.44 253.971 930.281C286.801 858.114 320.754 783.493 380.414 745.72C415.051 723.791 455.118 712.197 496.28 712.197C554.219 712.197 608.682 734.766 649.629 775.746C664.932 791.062 677.806 808.479 687.895 827.513C689.198 829.971 692.249 830.906 694.708 829.605C697.167 828.3 698.105 825.247 696.801 822.786C686.242 802.871 672.773 784.643 656.758 768.615C613.906 725.728 556.914 702.11 496.28 702.11C453.206 702.11 411.278 714.242 375.025 737.193C312.825 776.573 278.241 852.587 244.796 926.098L244.792 926.108C211.661 998.924 177.403 1074.22 116.641 1112.73Z" fill="#C4C4C4"/>
<path d="M116.641 1112.73C82.0671 1134.66 42.0004 1146.25 0.778076 1146.25V1156.34C43.9188 1156.34 85.8466 1144.21 122.04 1121.25C185.338 1081.13 220.231 1004.44 253.971 930.281C286.801 858.114 320.754 783.493 380.414 745.72C415.051 723.791 455.118 712.197 496.28 712.197C554.219 712.197 608.682 734.766 649.629 775.746C664.932 791.062 677.806 808.479 687.895 827.513C689.198 829.971 692.249 830.906 694.708 829.605C697.167 828.3 698.105 825.247 696.801 822.786C686.242 802.871 672.773 784.643 656.758 768.615C613.906 725.728 556.914 702.11 496.28 702.11C453.206 702.11 411.278 714.242 375.025 737.193C312.825 776.573 278.241 852.587 244.796 926.098L244.792 926.108C211.661 998.924 177.403 1074.22 116.641 1112.73Z" fill="url(#paint6_linear)"/>
<path d="M987.059 702.085C1047.65 702.085 1104.64 725.702 1147.54 768.589C1190.39 811.476 1213.99 868.515 1213.99 929.203C1213.99 989.846 1190.39 1046.89 1147.54 1089.81C1104.64 1132.7 1047.65 1156.32 987.059 1156.32C931.877 1156.32 878.698 1136.28 837.314 1099.89C835.225 1098.05 835.016 1094.86 836.854 1092.77C838.692 1090.68 841.877 1090.47 843.966 1092.31C883.509 1127.08 934.326 1146.23 987.059 1146.23C1044.96 1146.23 1099.42 1123.66 1140.41 1082.68C1181.36 1041.66 1203.91 987.153 1203.91 929.203C1203.91 871.212 1181.36 816.708 1140.41 775.724C1099.42 734.743 1044.96 712.175 987.059 712.175C945.836 712.175 905.77 723.769 871.196 745.698C810.431 784.214 776.173 859.511 743.04 932.33C709.596 1005.84 675.012 1081.85 612.812 1121.23C576.559 1144.19 534.631 1156.32 491.557 1156.32C430.923 1156.32 373.931 1132.7 331.079 1089.81C315.064 1073.78 301.595 1055.56 291.036 1035.64C289.732 1033.18 290.67 1030.13 293.129 1028.82C295.588 1027.52 298.639 1028.46 299.942 1030.91C310.031 1049.95 322.905 1067.37 338.208 1082.68C379.155 1123.66 433.617 1146.23 491.557 1146.23C532.719 1146.23 572.786 1134.64 607.423 1112.71C667.083 1074.93 701.035 1000.31 733.865 928.147C767.606 853.983 802.499 777.294 865.797 737.174C901.99 714.219 943.918 702.085 987.059 702.085Z" fill="url(#paint7_linear)"/>
<path d="M987.059 702.085C1047.65 702.085 1104.64 725.702 1147.54 768.589C1190.39 811.476 1213.99 868.515 1213.99 929.203C1213.99 989.846 1190.39 1046.89 1147.54 1089.81C1104.64 1132.7 1047.65 1156.32 987.059 1156.32C931.877 1156.32 878.698 1136.28 837.314 1099.89C835.225 1098.05 835.016 1094.86 836.854 1092.77C838.692 1090.68 841.877 1090.47 843.966 1092.31C883.509 1127.08 934.326 1146.23 987.059 1146.23C1044.96 1146.23 1099.42 1123.66 1140.41 1082.68C1181.36 1041.66 1203.91 987.153 1203.91 929.203C1203.91 871.212 1181.36 816.708 1140.41 775.724C1099.42 734.743 1044.96 712.175 987.059 712.175C945.836 712.175 905.77 723.769 871.196 745.698C810.431 784.214 776.173 859.511 743.04 932.33C709.596 1005.84 675.012 1081.85 612.812 1121.23C576.559 1144.19 534.631 1156.32 491.557 1156.32C430.923 1156.32 373.931 1132.7 331.079 1089.81C315.064 1073.78 301.595 1055.56 291.036 1035.64C289.732 1033.18 290.67 1030.13 293.129 1028.82C295.588 1027.52 298.639 1028.46 299.942 1030.91C310.031 1049.95 322.905 1067.37 338.208 1082.68C379.155 1123.66 433.617 1146.23 491.557 1146.23C532.719 1146.23 572.786 1134.64 607.423 1112.71C667.083 1074.93 701.035 1000.31 733.865 928.147C767.606 853.983 802.499 777.294 865.797 737.174C901.99 714.219 943.918 702.085 987.059 702.085Z" fill="url(#paint8_linear)"/>
<path d="M987.059 702.085C1047.65 702.085 1104.64 725.702 1147.54 768.589C1190.39 811.476 1213.99 868.515 1213.99 929.203C1213.99 989.846 1190.39 1046.89 1147.54 1089.81C1104.64 1132.7 1047.65 1156.32 987.059 1156.32C931.877 1156.32 878.698 1136.28 837.314 1099.89C835.225 1098.05 835.016 1094.86 836.854 1092.77C838.692 1090.68 841.877 1090.47 843.966 1092.31C883.509 1127.08 934.326 1146.23 987.059 1146.23C1044.96 1146.23 1099.42 1123.66 1140.41 1082.68C1181.36 1041.66 1203.91 987.153 1203.91 929.203C1203.91 871.212 1181.36 816.708 1140.41 775.724C1099.42 734.743 1044.96 712.175 987.059 712.175C945.836 712.175 905.77 723.769 871.196 745.698C810.431 784.214 776.173 859.511 743.04 932.33C709.596 1005.84 675.012 1081.85 612.812 1121.23C576.559 1144.19 534.631 1156.32 491.557 1156.32C430.923 1156.32 373.931 1132.7 331.079 1089.81C315.064 1073.78 301.595 1055.56 291.036 1035.64C289.732 1033.18 290.67 1030.13 293.129 1028.82C295.588 1027.52 298.639 1028.46 299.942 1030.91C310.031 1049.95 322.905 1067.37 338.208 1082.68C379.155 1123.66 433.617 1146.23 491.557 1146.23C532.719 1146.23 572.786 1134.64 607.423 1112.71C667.083 1074.93 701.035 1000.31 733.865 928.147C767.606 853.983 802.499 777.294 865.797 737.174C901.99 714.219 943.918 702.085 987.059 702.085Z" fill="url(#paint9_linear)"/>
<path d="M678.302 831.395C682.079 838.87 691.2 841.869 698.668 838.086C706.137 834.307 709.134 825.178 705.354 817.703C701.578 810.229 692.457 807.233 684.988 811.012C677.52 814.792 674.526 823.917 678.302 831.395Z" fill="url(#paint10_linear)"/>
<path d="M275.169 1027.11C272.014 1019.35 275.743 1010.5 283.497 1007.34C291.251 1004.18 300.094 1007.92 303.249 1015.68C306.403 1023.44 302.674 1032.29 294.92 1035.44C287.17 1038.6 278.324 1034.87 275.169 1027.11Z" fill="url(#paint11_linear)"/>
<defs>
<linearGradient id="paint0_linear" x1="0.157227" y1="227.938" x2="929.942" y2="227.938" gradientUnits="userSpaceOnUse">
<stop offset="0.2609" stop-color="#7B3DD9"/>
<stop offset="0.3807" stop-color="#6260D2"/>
<stop offset="0.6447" stop-color="#24B7C1"/>
<stop offset="0.7005" stop-color="#16CABD"/>
</linearGradient>
<linearGradient id="paint1_linear" x1="1440.18" y1="227.912" x2="510.4" y2="227.912" gradientUnits="userSpaceOnUse">
<stop offset="0.2609" stop-color="#7B3DD9"/>
<stop offset="0.3807" stop-color="#6260D2"/>
<stop offset="0.6447" stop-color="#24B7C1"/>
<stop offset="0.7005" stop-color="#16CABD"/>
</linearGradient>
<linearGradient id="paint2_linear" x1="1445.5" y1="227.912" x2="516.714" y2="227.912" gradientUnits="userSpaceOnUse">
<stop offset="0.369792" stop-color="#FF36BB"/>
<stop offset="0.484375" stop-color="#944CDC"/>
<stop offset="0.744792" stop-color="#84848B"/>
<stop offset="0.911458" stop-color="#16CABD"/>
</linearGradient>
<linearGradient id="paint3_linear" x1="0.151738" y1="60.8359" x2="929.945" y2="60.8359" gradientUnits="userSpaceOnUse">
<stop offset="0.2609" stop-color="#7B3DD9"/>
<stop offset="0.3807" stop-color="#6260D2"/>
<stop offset="0.6447" stop-color="#24B7C1"/>
<stop offset="0.7005" stop-color="#16CABD"/>
</linearGradient>
<linearGradient id="paint4_linear" x1="0.157317" y1="123.354" x2="929.944" y2="123.354" gradientUnits="userSpaceOnUse">
<stop offset="0.2609" stop-color="#7B3DD9"/>
<stop offset="0.3807" stop-color="#6260D2"/>
<stop offset="0.6447" stop-color="#24B7C1"/>
<stop offset="0.7005" stop-color="#16CABD"/>
</linearGradient>
<linearGradient id="paint5_linear" x1="507.279" y1="316.782" x2="1415.33" y2="316.782" gradientUnits="userSpaceOnUse">
<stop offset="0.3575" stop-color="#16CABD"/>
<stop offset="0.5472" stop-color="#84848B"/>
<stop offset="0.7095" stop-color="#DC4C64"/>
<stop offset="0.7826" stop-color="#FF3654"/>
</linearGradient>
<linearGradient id="paint6_linear" x1="-3.22824" y1="929.226" x2="697.39" y2="929.226" gradientUnits="userSpaceOnUse">
<stop offset="0.3575" stop-color="#16CABD"/>
<stop offset="0.5472" stop-color="#84848B"/>
<stop offset="0.7095" stop-color="#944CDC"/>
<stop offset="0.7826" stop-color="#FF36BB"/>
</linearGradient>
<linearGradient id="paint7_linear" x1="1213.99" y1="929.201" x2="284.131" y2="929.201" gradientUnits="userSpaceOnUse">
<stop offset="0.2609" stop-color="#7B3DD9"/>
<stop offset="0.3807" stop-color="#6260D2"/>
<stop offset="0.6447" stop-color="#24B7C1"/>
<stop offset="0.7005" stop-color="#16CABD"/>
</linearGradient>
<linearGradient id="paint8_linear" x1="1219.3" y1="929.201" x2="290.446" y2="929.201" gradientUnits="userSpaceOnUse">
<stop offset="0.369792" stop-color="#FF36BB"/>
<stop offset="0.484375" stop-color="#944CDC"/>
<stop offset="0.744792" stop-color="#84848B"/>
<stop offset="0.911458" stop-color="#16CABD"/>
</linearGradient>
<linearGradient id="paint9_linear" x1="1213.99" y1="929.201" x2="284.131" y2="929.201" gradientUnits="userSpaceOnUse">
<stop offset="0.2609" stop-color="#7B3DD9"/>
<stop offset="0.3807" stop-color="#6260D2"/>
<stop offset="0.6447" stop-color="#24B7C1"/>
<stop offset="0.7005" stop-color="#16CABD"/>
</linearGradient>
<linearGradient id="paint10_linear" x1="-226.152" y1="824.548" x2="703.708" y2="824.548" gradientUnits="userSpaceOnUse">
<stop offset="0.2609" stop-color="#7B3DD9"/>
<stop offset="0.3807" stop-color="#6260D2"/>
<stop offset="0.6447" stop-color="#24B7C1"/>
<stop offset="0.7005" stop-color="#16CABD"/>
</linearGradient>
<linearGradient id="paint11_linear" x1="278.459" y1="1021.39" x2="1214.45" y2="1021.39" gradientUnits="userSpaceOnUse">
<stop offset="0.3575" stop-color="#16CABD"/>
<stop offset="0.5472" stop-color="#84848B"/>
<stop offset="0.7095" stop-color="#DC4C64"/>
<stop offset="0.7826" stop-color="#FF3654"/>
</linearGradient>
</defs>
</svg>
